<?xml version="1.0" encoding="utf-8"?>
<!-- Generator: Adobe Illustrator 24.1.1, SVG Export Plug-In . SVG Version: 6.00 Build 0)  -->
<svg version="1.1" id="Capa_1" xmlns="http://www.w3.org/2000/svg" xmlns:xlink="http://www.w3.org/1999/xlink" x="0px" y="0px"
	 viewBox="0 0 93.2 91.5" style="enable-background:new 0 0 93.2 91.5;" xml:space="preserve">
<style type="text/css">
	.st0{fill:#252525;}
	.st1{fill:#030303;}
	.st2{fill:#020202;}
	.st3{fill:#0B0B0B;}
	.st4{fill:#171717;}
	.st5{fill:#272727;}
	.st6{fill:#4C4C4C;}
</style>
<path class="st0" d="M6.6,61.5c-1.7,0-3.3,0-5,0c0-10,0-20,0-30c1.7,0,3.3,0,5,0c0.2,0,0.4-0.1,0.5,0c0.2,0.2,0.2,0.4,0.5,1
	c-1.8,0-3.3,0-4.9,0c0,9.5,0,18.6,0,27.6C4,61.1,5.9,59.3,6.6,61.5z"/>
<path class="st0" d="M91.6,61.5c-1.7,0-3.3,0-5,0c0-0.3,0-0.7,0-1c1.3,0,2.6,0,4,0c0-9.3,0-18.3,0-27.2c0-0.1-0.1-0.3-0.2-0.4
	c-0.1-0.1-0.2-0.2-0.3-0.4c-1.2,0-2.4,0-3.5,0c0-0.3,0-0.7,0-1c1.7,0,3.3,0,5,0C91.6,41.5,91.6,51.5,91.6,61.5z"/>
<path class="st0" d="M61.6,86.5c0,1.7,0,3.3,0,5c-10,0-20,0-30,0c0-1.7,0-3.3,0-5c2.3,0.6,0,3.1,1.3,3.8c9.4,0,18.4,0,27.4,0
	C61.2,89.1,59.5,87.1,61.6,86.5z"/>
<path class="st1" d="M61.6,86.5c0,0-0.1,5,0,4.9l-0.1,0.1H31.6v-5h-9.8l-0.3-4.9h-4.8v-5.1h-5.1v-5.1h-5c0-3.4,0-6.7,0-10h-5v-30
	c0,0,5.6,0.2,5.5,0c-0.1-0.1-0.3,0-0.5,0c0-3.2,0-6.5,0-10c1.8,0,3.4,0,5,0c0.3,0,0.7,0,1,0c-0.3,0.7,4,30,4,30l5,10l4.8,5l5,5
	l10.2,5l30,4.8v5C68.1,86.5,64.8,86.5,61.6,86.5z"/>
<path class="st2" d="M34.4,6.5c0.4,0,0.9,0,1.3,0c-1.5,1.8-1.3,4-1.3,6.3c-2.3,0-4.3,0-6.3,0c-1.7,0-3.4,0-5.1,0c-0.4,0-0.9,0-1.3,0
	c0-2,0-4,0-6.3C26.1,6.5,30.2,6.5,34.4,6.5z"/>
<path class="st2" d="M22.6,11.5c0.4,0,0.8,0,1.2,0c-1.3,1.7-1.2,3.7-1.2,6c-1.8,0-3.3,0-4.8,0c-0.4,0-0.8,0-1.2,0c0-1.9,0-3.8,0-6
	C18.7,11.5,20.7,11.5,22.6,11.5z"/>
<path class="st2" d="M18.3,16.5c0.4,0,0.9,0,1.3,0c-1.5,1.7-1.4,3.7-1.4,6c-2,0-3.6,0-5.3,0c-0.4,0-0.9,0-1.3,0c0-1.9,0-3.8,0-6
	C14,16.5,16.2,16.5,18.3,16.5z"/>
<path class="st2" d="M86.6,31.7C86.6,32,86.6,31.7,86.6,31.7h-5.1c0,0,0-6.3,0-9.4c0-0.3,0-0.7,0-1c1.6,0,3.3,0,5.1,0
	C86.6,24.9,86.6,28.3,86.6,31.7z"/>
<path class="st2" d="M86.6,60.4c0,3.6,0,7.2,0,11.1c-2.3,0-4.3,0-6.3,0c0-1.8,0-3.7,0-5.5s0-3.5,0-5.5
	C82.6,60.4,84.6,60.4,86.6,60.4z"/>
<path class="st2" d="M81.6,69.8c0,2.1,0,4.2,0,6.6c-2.5,0-4.6,0-6.8,0c0-2.1,0-4.2,0-6.6C77.3,69.8,79.4,69.8,81.6,69.8z"/>
<path class="st2" d="M76.6,75c0,2,0,4.1,0,6.4c-2.3,0-4.4,0-6.4,0c0-2,0-4.1,0-6.4C72.5,75,74.6,75,76.6,75z"/>
<path class="st2" d="M61.6,8.1c-9.7,0-30.8,0-30,0c0-1.6,0-5,0-6.6c0.1-0.1,20.7,0,30,0C61.6,3.3,61.6,6.4,61.6,8.1z"/>
<path class="st2" d="M86.2,61.5c0-9.3,0-20.7,0-30c1.2,0,5.3,0,5.3,0s0,20.7,0,30C90.1,61.5,87.6,61.5,86.2,61.5z"/>
<path class="st3" d="M26.6,11.5c0,3.2,0,6.3,0,9.8c-1.5,0.1-3.1,0.2-4.8,0.3c0,8.1,0,16.3,0,24.7c1.4,0.1,3,0.2,4.7,0.3
	c0,3.2,0,6.3,0,9.7c1.7,0.1,3.3,0.1,5,0.2c0,1.6,0,3,0,4.8c1.7,0,3.3,0,5,0c0,1.8,0,3.2,0,5c3.4,0,6.6,0,10,0c0,1.8,0,3.2,0,4.9
	c8.3,0,24.8,0,24.8,0v-4.7c0,0,6.9-0.1,10.2-0.1c0,1.7,0,3.3,0,5c-1.6,0-3.2,0-5,0c0,1.8,0,3.4,0,5c-1.6,0-3.2,0-5,0
	c0,1.8,0,3.4,0,5c-9.9,0-19.9,0-30,0c0-1.7,0-3.2,0-4.8c-3.3,0-6.4,0-9.8,0c-0.1-1.7-0.2-3.3-0.3-5c-1.5,0-2.9,0-4.7,0
	c-0.1-1.7-0.2-3.3-0.2-5c-1.6,0-3,0-4.8,0c0-1.7,0-3.3,0-5c-1.8,0-3.2,0-5,0c0-3.4,0-6.6,0-10c-1.8,0-3.2,0-5,0c0-9.4,0-30,0-30h5
	v-5c0,0,3.5,0,5,0c0-1.9,0-5,0-5S25.3,11.5,26.6,11.5z"/>
<path class="st3" d="M26.6,11.4l4.9,44.9l5,5l10,5l24.8,0.1c0,0,6.9-0.1,10.2-0.1c0,1.7,0,3.3,0,5c-1.6,0-3.2,0-5,0c0,1.8,0,3.4,0,5
	c-1.6,0-3.2,0-5,0c0,1.8,0,3.4,0,5c-9.9,0-19.9,0-30,0c0-1.7,0-3.2,0-4.8c-3.3,0-9.8,0-9.8,0v-5h-5v-5c0,0-3.3,0-5.1,0
	c0-1.7,0-3.3,0-5c-1.8,0-3.2,0-5,0c0-3.4,0-6.6,0-10c-1.8,0-3.2,0-5,0c0-9.4,0-30,0-30h5v-5c0,0,3.5,0,5,0c0-1.9,0-5,0-5L26.6,11.4
	L26.6,11.4z"/>
<path class="st4" d="M86.6,61.5c-1.6,0-3.2,0-5,0c0,1.8,0,3.4,0,5c-3.3,0-10.2,0-10.2,0v4.8c0,0-16.6,0-24.8,0c0-1.6,0-3.1,0-4.9
	c-3.4,0-6.6,0-10,0c0-1.8,0-3.2,0-5c-1.7,0-3.3,0-5,0c0-1.8,0-5,0-5h-5v-10l-4.7-0.1V21.5h4.8c0,0,0-6.8,0-10c1.6,0,3.2,0,5,0
	c0-1.9,0-5,0-5h30c0,0,0,3.7,0,5c-4.9,0,19.9,20,19.9,20h5.1c0,0,0,19.7,0,29C86.6,60.8,86.6,61.1,86.6,61.5z"/>
<path class="st5" d="M81.6,31.5c0,4.8,0,15.1,0,15.1h-4.8v5h-5c0,0,0,3,0,4.6c-6.7,0-13.3,0-20,0c0-1.4,0-4.6,0-4.6h-5v-5.1h-5
	c0,0,0-3.3,0-5.1c-1.7,0-3.3,0-5,0c0-6.8,0-13.2,0-20c1.6,0,3.1,0,4.9,0c0-1.8,0-3.2,0-4.9c1.6,0,4.8,0,4.8,0v-5.2h25.2l5,5l4.9,5
	C81.6,21.3,81.6,28.5,81.6,31.5z"/>
<path class="st2" d="M61.5,7.5c0-0.3,0-1,0-1s6.6,0,10.1,0c0,1.8,0,4.9,0,4.9H61.5C61.5,11.4,61.5,8.7,61.5,7.5z"/>
<path class="st6" d="M66.8,41.4c-3.6,0-6.8,0-10.1,0c0-1.5,0-4.8,0-4.8s-3.3,0-5,0c0-3.5,0-6.6,0-9.9c1.4,0,4.8,0,4.8,0v-5h10.1
	l0.1,4.7c0,0,3,0,4.7,0c0,3.4,0,6.6,0,10.1c-1.5,0-3,0-4.6,0C66.8,38,66.8,39.5,66.8,41.4z"/>
<path class="st2" d="M76.6,17.3c0-0.3,0-0.7,0-1c1.6,0,3.2,0,5,0c0,1.8,0,5,0,5h-5C76.6,21.3,76.6,18.5,76.6,17.3z"/>
<path class="st2" d="M71.6,11.3c0,0,3.2,0,5,0c0,1.8,0,5,0,5h-5V11.3z"/>
</svg>
